<?xml version="1.0" standalone="no"?>
<!DOCTYPE svg PUBLIC "-//W3C//DTD SVG 20010904//EN"
 "http://www.w3.org/TR/2001/REC-SVG-20010904/DTD/svg10.dtd">
<svg version="1.0" xmlns="http://www.w3.org/2000/svg"
 width="1418.000000pt" height="1418.000000pt" viewBox="0 0 1418.000000 1418.000000"
 preserveAspectRatio="xMidYMid meet">
<metadata>
Created by potrace 1.11, written by Peter Selinger 2001-2013
</metadata>
<g transform="translate(0.000000,1418.000000) scale(0.100000,-0.100000)"
fill="#000000" stroke="none">
<path d="M6778 14175 c-1 -1 -55 -6 -118 -9 -63 -4 -137 -9 -165 -11 -143 -13
-244 -24 -285 -30 -14 -2 -43 -6 -65 -9 -22 -4 -56 -8 -75 -11 -51 -6 -107
-15 -175 -27 -33 -6 -69 -12 -80 -14 -70 -12 -99 -18 -180 -35 -49 -11 -101
-22 -115 -25 -36 -7 -252 -62 -335 -85 -38 -11 -77 -22 -85 -24 -8 -2 -53 -16
-100 -31 -47 -15 -89 -28 -95 -30 -35 -7 -427 -149 -480 -174 -11 -5 -65 -28
-120 -51 -55 -23 -104 -44 -110 -47 -5 -4 -12 -7 -15 -7 -3 -1 -36 -16 -75
-35 -38 -18 -72 -34 -75 -34 -10 -2 -335 -169 -340 -175 -3 -3 -25 -16 -50
-29 -52 -26 -114 -60 -150 -83 -14 -9 -86 -54 -160 -100 -74 -46 -137 -87
-138 -91 -2 -4 -8 -8 -13 -8 -8 0 -135 -84 -199 -132 -14 -11 -86 -64 -160
-119 -74 -55 -140 -107 -146 -115 -6 -8 -14 -14 -18 -14 -4 0 -13 -6 -20 -12
-7 -7 -28 -25 -47 -40 -38 -29 -69 -55 -116 -99 -18 -16 -37 -29 -43 -29 -6 0
-8 -4 -5 -10 3 -5 2 -10 -3 -10 -10 0 -81 -62 -185 -162 -32 -32 -60 -58 -62
-58 -7 0 -165 -164 -165 -171 0 -5 -7 -9 -15 -9 -8 0 -15 -4 -15 -9 0 -13 -47
-60 -54 -54 -3 4 -6 1 -6 -5 0 -6 -15 -26 -33 -45 -33 -36 -130 -144 -167
-188 -12 -13 -31 -35 -43 -49 -12 -14 -69 -83 -125 -155 -56 -71 -110 -139
-120 -151 -9 -11 -33 -43 -51 -70 -19 -27 -37 -51 -40 -54 -20 -18 -241 -354
-323 -490 -72 -119 -95 -160 -168 -295 -39 -70 -179 -350 -208 -415 -28 -62
-55 -124 -57 -130 -3 -9 -24 -58 -55 -132 -54 -124 -203 -539 -214 -593 -1 -5
-11 -37 -21 -70 -10 -33 -19 -62 -20 -65 -15 -66 -29 -118 -35 -130 -5 -8 -11
-28 -14 -45 -5 -25 -17 -76 -51 -220 -3 -11 -8 -33 -10 -50 -3 -16 -8 -38 -11
-47 -3 -9 -7 -27 -9 -40 -3 -13 -9 -45 -14 -73 -6 -27 -13 -65 -16 -82 -3 -18
-7 -48 -11 -65 -3 -18 -9 -58 -14 -88 -5 -30 -12 -73 -15 -95 -3 -22 -7 -49
-10 -60 -2 -11 -7 -51 -10 -90 -4 -38 -8 -77 -10 -87 -2 -9 -6 -48 -10 -85 -3
-37 -8 -81 -10 -98 -27 -213 -27 -916 0 -1202 3 -29 7 -74 10 -100 16 -178 42
-358 79 -568 2 -11 7 -38 11 -60 4 -22 13 -71 22 -110 8 -38 17 -81 19 -95 7
-35 69 -281 93 -365 10 -38 26 -95 34 -125 22 -78 135 -413 157 -466 11 -24
17 -44 13 -44 -3 0 -1 -6 5 -13 8 -9 71 -162 78 -187 2 -8 34 -81 70 -158 19
-41 34 -76 34 -78 0 -13 250 -502 270 -529 4 -5 17 -26 28 -46 41 -73 47 -84
52 -89 3 -3 12 -18 20 -34 29 -56 35 -66 42 -66 5 0 8 -4 8 -9 0 -9 19 -40
126 -200 27 -40 60 -90 73 -110 29 -43 222 -304 230 -311 3 -3 25 -30 48 -60
23 -30 54 -69 70 -87 15 -18 38 -45 50 -61 12 -16 33 -40 45 -54 13 -13 55
-60 93 -103 85 -96 237 -256 323 -339 160 -154 184 -176 187 -176 2 0 19 -15
37 -34 18 -18 67 -61 108 -95 86 -71 167 -140 185 -158 7 -7 15 -9 19 -6 3 4
6 2 6 -3 0 -6 24 -28 53 -49 28 -22 54 -42 57 -45 3 -4 46 -35 95 -71 50 -35
92 -67 93 -71 2 -5 10 -8 17 -8 7 0 15 -4 17 -8 6 -15 457 -312 473 -312 3 0
34 -18 70 -40 36 -22 67 -40 70 -40 2 0 28 -14 57 -31 98 -58 514 -263 520
-257 2 1 17 -5 33 -14 42 -23 135 -64 165 -73 14 -4 30 -11 35 -15 6 -4 39
-17 75 -30 36 -13 71 -28 78 -33 6 -5 12 -6 12 -3 0 4 10 1 22 -6 13 -7 25
-13 28 -13 12 -2 87 -27 105 -35 53 -24 493 -159 572 -175 39 -8 58 -13 58
-15 0 -1 7 -3 15 -5 8 -2 27 -6 43 -9 54 -12 72 -16 92 -21 56 -13 264 -56
295 -60 19 -3 46 -8 60 -11 13 -3 40 -7 59 -10 19 -2 48 -7 65 -10 17 -3 43
-7 57 -9 14 -2 59 -8 100 -14 41 -6 97 -13 124 -15 28 -3 73 -8 100 -11 201
-22 382 -30 705 -30 322 0 523 9 705 29 22 3 67 8 100 11 33 3 71 8 84 10 13
2 45 7 70 11 25 3 57 8 71 10 14 2 43 7 65 9 35 5 99 15 177 29 126 23 340 71
483 108 61 16 121 31 135 34 14 2 32 7 40 11 8 3 21 7 28 9 30 6 225 68 332
106 63 22 120 41 125 42 6 1 15 4 20 7 6 4 34 14 62 23 29 10 55 22 59 27 3 5
10 7 15 3 5 -3 20 1 32 9 18 11 108 49 127 53 7 1 133 57 235 104 139 64 160
74 167 84 4 6 8 8 8 4 0 -6 26 7 225 112 131 69 157 83 170 93 5 5 57 36 115
70 122 72 282 174 312 199 11 10 29 20 39 23 11 4 19 11 19 16 0 5 7 9 15 9 9
0 18 7 21 15 4 8 11 15 18 15 9 0 28 13 83 60 7 5 15 10 17 10 3 0 29 18 58
41 29 22 78 59 108 82 30 22 60 46 66 52 6 6 34 28 62 50 29 21 52 43 52 47 0
4 5 8 10 8 6 0 21 10 34 23 12 12 44 40 70 62 146 121 399 365 556 536 52 56
106 115 120 130 30 33 44 48 140 164 41 50 89 108 105 129 17 21 36 45 43 52
6 7 12 17 12 22 0 6 3 12 8 14 9 4 82 94 82 102 0 5 12 21 45 60 6 7 15 19 20
27 34 53 211 315 215 319 3 3 45 70 92 150 81 137 108 185 166 290 35 64 185
365 212 425 12 28 33 75 47 105 14 30 26 60 27 65 2 6 15 36 29 69 15 32 27
61 27 64 0 3 20 55 44 116 60 154 181 514 192 572 1 7 13 52 27 100 14 49 27
100 29 114 2 14 6 30 9 35 4 6 10 28 14 50 5 22 9 45 11 50 8 33 53 246 58
275 3 19 8 46 10 60 3 14 8 39 11 55 3 17 8 46 10 65 3 19 7 44 10 55 2 11 7
42 11 70 3 27 7 59 9 70 11 81 25 201 30 260 4 39 8 84 10 100 12 102 20 330
20 595 0 338 -12 568 -40 800 -3 25 -8 63 -10 85 -5 37 -12 92 -19 140 -2 11
-7 40 -10 65 -15 94 -16 106 -21 130 -8 37 -14 69 -25 132 -20 104 -23 121
-40 193 -7 28 -14 63 -16 78 -2 16 -6 33 -10 38 -3 5 -7 21 -10 35 -3 14 -11
49 -19 77 -40 148 -47 173 -50 187 -4 19 -35 118 -87 275 -46 139 -149 416
-184 493 -13 29 -24 54 -24 57 0 5 -67 155 -85 188 -8 16 -15 35 -15 43 0 8
-4 14 -10 14 -5 0 -10 6 -10 13 0 11 -45 103 -140 287 -19 36 -39 68 -44 72
-6 4 -8 8 -4 8 4 0 -6 21 -22 47 -17 26 -30 51 -30 55 0 5 -5 14 -10 21 -11
13 -95 154 -119 200 -8 15 -18 27 -23 27 -4 0 -8 5 -8 10 0 12 -194 305 -216
328 -8 7 -14 17 -14 22 0 5 -6 15 -12 22 -23 25 -78 97 -78 102 0 6 -31 45
-57 72 -7 7 -13 15 -13 19 0 6 -11 21 -40 53 -9 9 -33 40 -55 67 -22 28 -44
55 -50 61 -5 7 -24 29 -42 50 -37 46 -50 61 -140 162 -165 185 -374 394 -563
562 -40 36 -78 70 -84 75 -6 6 -54 45 -106 88 -52 42 -102 83 -110 90 -8 8
-46 38 -85 68 -38 30 -71 57 -73 61 -2 5 -8 8 -13 8 -8 0 -70 44 -125 89 -6 5
-83 57 -170 115 -88 58 -163 109 -169 114 -5 4 -23 15 -40 24 -16 8 -70 40
-120 70 -148 90 -250 146 -465 253 -139 70 -276 135 -284 135 -2 0 -38 16 -79
35 -41 19 -78 35 -82 35 -4 0 -23 7 -43 16 -157 69 -444 169 -682 239 -121 35
-139 40 -178 49 -10 2 -63 16 -118 30 -54 14 -110 28 -124 30 -14 3 -81 17
-150 31 -69 15 -132 28 -142 30 -9 2 -38 7 -65 11 -49 7 -69 10 -113 18 -55
11 -197 30 -310 41 -30 3 -66 8 -80 10 -14 2 -68 7 -120 11 -52 3 -113 8 -135
11 -48 5 -762 13 -767 8z"/>
</g>
</svg>
